<svg width="31" height="28" viewBox="0 0 31 28" fill="none" xmlns="http://www.w3.org/2000/svg">
<g clip-path="url(#clip0_505_48)">
<path d="M12.7415 13.0918L12.7415 13.0917L2.41004 2.75705C2.40999 2.75699 2.40993 2.75694 2.40988 2.75689C2.40983 2.75684 2.40979 2.7568 2.40974 2.75675C2.02983 2.37746 1.41433 2.37759 1.03466 2.7569C1.03462 2.75694 1.03459 2.75697 1.03456 2.757M12.7415 13.0918L1.03456 2.757M12.7415 13.0918C13.1214 13.4716 13.1214 14.0839 12.7415 14.4637L12.7415 14.4638L2.40983 24.7971C2.02997 25.1769 1.41452 25.1769 1.03481 24.7972C0.655063 24.4173 0.655063 23.8049 1.03481 23.425L1.03484 23.425L10.148 14.308L10.678 13.7777L10.1479 13.2475L1.03481 4.13212C1.0348 4.13212 1.0348 4.13211 1.03479 4.13211M12.7415 13.0918L1.03479 4.13211M1.03456 2.757C0.655069 3.13689 0.655148 3.75232 1.03479 4.13211M1.03456 2.757L1.03479 4.13211M29.2778 23.1389C29.8162 23.1389 30.25 23.5727 30.25 24.1111C30.25 24.6495 29.8162 25.0833 29.2778 25.0833H13.7778C13.2394 25.0833 12.8056 24.6495 12.8056 24.1111C12.8056 23.5727 13.2394 23.1389 13.7778 23.1389H29.2778Z" stroke="#3294F8" stroke-width="1.5"/>
</g>
<defs>
<clipPath id="clip0_505_48">
<rect width="31" height="27.5556" fill="white"/>
</clipPath>
</defs>
</svg>
